PathFileType	4	(X/Y/Z)	10_2_12_p0_0-334_filt_butterworth.trc
DataRate	CameraRate	NumFrames	NumMarkers	Units	OrigDataRate	OrigDataStartFrame	OrigNumFrames
60.0	60.0	7	27	m	60.0	292	334
Frame#	Time	RHip			RKnee			RAnkle			RBigToe			RSmallToe			RHeel			LHip			LKnee			LAnkle			LBigToe			LSmallToe			LHeel			Neck			Head			Nose			RShoulder			RElbow			RWrist			RThumb			RIndex			RPinky			LShoulder			LElbow			LWrist			LThumb			LIndex			LPinky			
		X1	Y1	Z1	X2	Y2	Z2	X3	Y3	Z3	X4	Y4	Z4	X5	Y5	Z5	X6	Y6	Z6	X7	Y7	Z7	X8	Y8	Z8	X9	Y9	Z9	X10	Y10	Z10	X11	Y11	Z11	X12	Y12	Z12	X13	Y13	Z13	X14	Y14	Z14	X15	Y15	Z15	X16	Y16	Z16	X17	Y17	Z17	X18	Y18	Z18	X19	Y19	Z19	X20	Y20	Z20	X21	Y21	Z21	X22	Y22	Z22	X23	Y23	Z23	X24	Y24	Z24	X25	Y25	Z25	X26	Y26	Z26	X27	Y27	Z27	
292	4.866666666666666	0.26452642849967944	0.8404376715580079	0.7071258686155442	0.2658899633979664	0.3893733579671145	0.6570434282603094	0.2843580324070031	-0.0964906586891208	0.8237095056221735	0.27274491006066753	-0.06856820414087128	0.5861121121454962	0.3165061581898618	-0.08300787149215878	0.6262952972765286	0.2651131826146743	-0.17472239288936142	0.8973820876913182	0.06031634838284828	0.836063636185466	0.6938916586467948	0.06874017360031247	0.363854139143595	0.7435395241870268	0.07404413090074205	-0.07098380005038603	0.7811696088589531	0.11287334588749984	-0.08861865882861937	0.6085172796550037	0.05659413092024624	-0.08141912076590449	0.6306988873029793	0.08236693159510747	-0.14654989950396152	0.8740580539828178	0.15555133213382216	1.4278307383634035	0.6851263012380966	0.17954820225215157	1.6871916205581077	0.5492395606873963	0.17424199845378954	1.5385733715807108	0.5108656858695162	0.3108558449921439	1.3850524406617122	0.6901170866414033	0.4502530577682975	1.1768395067621702	0.8668595944854567	0.40525799227833126	1.0391902240247899	0.6808937260878567	0.3245333304300701	0.9918474992184968	0.564799962830524	0.3399741915225396	0.9786306046854378	0.5442309785230592	0.3546771439402914	0.9399188128878313	0.6090486477921246	-0.016391309900883343	1.3610908741073728	0.6761471817158178	-0.04556781078056804	1.1059873157352724	0.6515536988063519	0.00663838259689263	0.9807199253201015	0.44638225142671656	0.05629632540267385	0.9552881818443973	0.3493933758400207	0.040190609146426796	0.939821069246853	0.29905958511444003	0.020828965194919058	0.9137929468620036	0.3337162175767153	
293	4.883333333333334	0.2654222172122979	0.8407445758245278	0.7083114426933611	0.26556320591274735	0.388509888721819	0.6592982445335278	0.28463323945460456	-0.09619335134115883	0.8231950535091378	0.27301133482797824	-0.06848724216801186	0.585954116139185	0.31613907706419675	-0.08248751269849566	0.6242276302971699	0.26527906309038274	-0.17488716047422204	0.8967400426833069	0.06058388066646522	0.8356711445535459	0.6942242464149901	0.06880448873937302	0.36415138871212627	0.7434648116224114	0.07378088864656324	-0.07103032189103778	0.7809901683105789	0.11288911387312654	-0.08835634534356429	0.607865729023442	0.05688883770228968	-0.08025867433784817	0.6305190704561414	0.08220674786271165	-0.14572162999452665	0.8713192572679899	0.15610256809455447	1.4279339383196596	0.6850063015637009	0.18174455738353965	1.6866127130120474	0.5541592935976516	0.17571570350010085	1.5390548326416043	0.5109557145777498	0.3112898772499536	1.3828715336129682	0.6940478905752663	0.45025364927245926	1.174436027998767	0.866782803442909	0.40976745427854355	1.0423521155817603	0.671319180756657	0.32669436593770396	1.0017312387567758	0.5441935931494291	0.34276367984762823	0.9892863215847515	0.5205655373424904	0.35652407882518455	0.9433327304455478	0.6014738497071477	-0.015545113048398394	1.3615534227325732	0.673296757388288	-0.0446405651451199	1.1036794296496932	0.6501491581259644	0.004184274076035918	0.9677759579092041	0.4490754575770126	0.053665956167876075	0.9386739096628617	0.35571242403782904	0.03745163641831908	0.9235524424246985	0.3020442584499277	0.018032635271051606	0.8994092127045615	0.3349762752385006	
294	4.9	0.2662639864030279	0.840908148596352	0.7094285408670482	0.2652398672037159	0.3876265763811979	0.6618061318781144	0.2849702186719084	-0.09556765265804446	0.8225183807740609	0.2736081789160636	-0.06849465409236648	0.5860961390755909	0.3158721663907277	-0.08221801860193229	0.6229532099657253	0.2655492789839608	-0.17475820027707076	0.8959557009313366	0.060748926581097235	0.8350744215882515	0.6943876727907492	0.06881719219173245	0.3642581975045507	0.7434888889024263	0.07355257176630542	-0.07111368256945556	0.78064985991842	0.1129419272089425	-0.08814350675587318	0.6073335430990429	0.057103023213161734	-0.07906793615051977	0.630460468364808	0.08207417953366669	-0.14449905892438838	0.8676519072500538	0.15687547536451776	1.427991179993556	0.6851264166930264	0.18382549685103072	1.686166320271434	0.5583737096983515	0.17689856037090917	1.5393108523604866	0.511185088884769	0.3120762974196218	1.3805168251129756	0.6986140444645338	0.45024351986994726	1.1712632000453964	0.8659836343186533	0.4140338597094004	1.0452863865040598	0.6602980518510434	0.3301413278838179	1.0108054182302502	0.5213384869897554	0.34590439471426154	0.9990843108666726	0.4972525298790754	0.3597108105544818	0.9464599795440877	0.5922653823839583	-0.014156559533452953	1.3623914843142935	0.6694244913500551	-0.043887254989625084	1.101279321722771	0.6495564621889056	0.0020006457447139287	0.9536737238282942	0.4519469285884829	0.05183516904685388	0.9218280057352123	0.3608748882710529	0.03604004949652218	0.9081442939071677	0.3049669117288816	0.015572350494738388	0.8835241105357001	0.3401093559305463	
295	4.916666666666667	0.2669371575199001	0.8408960865660704	0.7106023996910593	0.2649240285801159	0.38675057746851266	0.6643873274170491	0.285314237583633	-0.09468639342308349	0.8216788166439585	0.27438714785434565	-0.06857639294258416	0.5864576081830482	0.3157757647048898	-0.0822958958197814	0.6227340033351249	0.265909268718188	-0.17438679948040456	0.8950636044432873	0.06079035049689752	0.8342365838111151	0.6945855391790322	0.0688053590898732	0.3642425100931887	0.7435281031794825	0.07333480672919018	-0.0713301627962854	0.7802461466152857	0.11296246897629084	-0.08798450805199093	0.6071734780749493	0.05722179019738301	-0.07812086255928591	0.630408548669755	0.08201899195817335	-0.14301533302076747	0.8636194783291289	0.15773587742876005	1.4280197043161347	0.6854145084587746	0.1856028345150053	1.6859140458292867	0.5616371185728315	0.17773652442798027	1.5395693895288858	0.5114875275682109	0.31326054155308836	1.3783806832874697	0.7028592576856284	0.4503629653565744	1.166723612328298	0.8640950399121028	0.4172401010331278	1.0477033490885188	0.6474165643793177	0.33449742885576195	1.0181467121107326	0.4985047428727414	0.34894733153562263	1.0066188371997158	0.4766094689230904	0.3640921691712141	0.9492696633799603	0.5812609826237525	-0.012344439236362765	1.3635273172981184	0.6645892675542693	-0.04329797975807037	1.098869745050958	0.6496788204223105	0.0006921492081908738	0.9397287803012662	0.45456585882650835	0.05060498477881868	0.9047007316826294	0.3654061025226708	0.03569550951157025	0.8926613493635753	0.309527990734876	0.014089820095008733	0.8671156573746197	0.3488397304773862	
296	4.933333333333334	0.2675070456675357	0.8406794557035225	0.7119926728259804	0.26465098280880706	0.3859146503891554	0.6670542745198548	0.2856558120407554	-0.09361106872883682	0.8206851695995513	0.27521044138628614	-0.06873552464142155	0.5868914974516977	0.3161655232422438	-0.08236785740161416	0.6230791938280915	0.26635639018971674	-0.1737369787010226	0.894065250963512	0.06072001042864518	0.833256736211419	0.6949419400660136	0.06878806082865092	0.3641662660425456	0.7435699494871073	0.07310731098590122	-0.07167682532346784	0.7798172074424247	0.11295598235397811	-0.08785115984744388	0.6072398268338028	0.057230825966357604	-0.0777297379165029	0.6302779706337329	0.08209624222631035	-0.14147374716395306	0.859790893245455	0.1585398496014164	1.4280486127470249	0.685736686572325	0.18698709285918835	1.685873102492523	0.5641072277495819	0.17830782828291575	1.5401048259732675	0.5117603669507781	0.31484377870080693	1.3767867449892541	0.7057670702633095	0.45047656444910505	1.1605058719297399	0.8609046787106668	0.41874746741766056	1.0493046264444712	0.6326053521515795	0.3394413226567379	1.0231685769150898	0.4778398529385194	0.35166402841840827	1.0110697213289135	0.46033369762065335	0.36884931484228106	0.9517827124079848	0.567823182879172	-0.01040532222459448	1.3647182008921321	0.6593251237805717	-0.042826864331262926	1.0966110155688846	0.6503103930584879	0.0005935318625895588	0.9271860461458429	0.456707518963816	0.049711068288596526	0.8873537845109719	0.3699637356988983	0.03600663341791299	0.8765504641729777	0.31655296117673704	0.0142564193198691	0.8511643043224018	0.3594666914432819	
297	4.95	0.2681117934262894	0.840273035095535	0.7136223286269463	0.2644909373223188	0.3851396533972397	0.6699262835064579	0.28603264431113523	-0.09236876743932894	0.8195659733262797	0.27595472469550786	-0.06900696424351593	0.5872731588661184	0.3173138120154435	-0.08213806194717227	0.6234753046187924	0.2668910649155308	-0.17269111666288256	0.8929228286559577	0.060560928527568204	0.8322572347269176	0.6954651782304846	0.0687486993704916	0.3640496077026224	0.7436834789780679	0.07286811958679318	-0.07205006878143363	0.7793384495947187	0.112955793278676	-0.08780187517577476	0.6072812085384225	0.05712776502966572	-0.07806661241577745	0.6300347598586417	0.08232016556365593	-0.1400877477269486	0.8564917105673762	0.15914552305195565	1.4280605153675223	0.6859627497017415	0.18808837545044643	1.685980517084939	0.5663812840893971	0.17869824097604015	1.5410174014605782	0.51189043214497	0.31669191869797697	1.3758753931902008	0.7063149323593529	0.44999838970014094	1.1527888347724287	0.8562928435486178	0.41833592930738556	1.049743686507821	0.6163971285605463	0.3445317667497056	1.025670666499988	0.46077760985457705	0.3538881136991441	1.0123767618102737	0.4490043661306515	0.37283075703694046	0.9540821983941685	0.5513280702627089	-0.0086514067281107	1.3657284877440927	0.6542273694767489	-0.04237106986017726	1.0945706143918406	0.6509642807351504	0.0016435125340446795	0.9167691571819007	0.4583506321441159	0.04915978929154563	0.8703154450848897	0.3746415724045337	0.0366509148444851	0.8600640200161594	0.3256679471715368	0.016211073043370723	0.8362738243361884	0.369917181091561	
298	4.966666666666667	0.26882621162675857	0.8397413177973065	0.7153963966781642	0.26449731235049423	0.3843953129820094	0.673088914666383	0.2864857727691653	-0.09096495462584746	0.8183587640392531	0.2765157041380025	-0.06935436119761373	0.5875261163711863	0.3192078664360327	-0.08156929855104436	0.623740377092064	0.26748179803315864	-0.17116655640324727	0.8916035422898893	0.06036072775245723	0.8312898894453024	0.6960965484934137	0.06865460426689786	0.3638817904411966	0.7439345979997005	0.07264673046989303	-0.07234532094124489	0.7787565939562675	0.11298800167887718	-0.08795516223496082	0.6071457572423798	0.05693094240231471	-0.07903658952355347	0.6297063355129077	0.08266549037770599	-0.13899006637362132	0.8537577433822459	0.15945234062584504	1.4279687590000247	0.6860371007547188	0.18917958434380366	1.6861135202405688	0.5691691454777065	0.1789091327386561	1.5422696192532	0.5118464435795518	0.318507749081543	1.3755637340291673	0.7038468601164971	0.44815352062548086	1.1441069178005487	0.8497950782601724	0.41613889307394225	1.0487978785346876	0.5998379088946031	0.34873115932800547	1.026164345876415	0.4471396707055888	0.35518690374835116	1.0113075799349318	0.4412598179926719	0.375150462059521	0.9561713054635977	0.5321979138750564	-0.00733950740788514	1.3664342406187262	0.6496212448946874	-0.04177932528413203	1.0926521955050648	0.6511281431277021	0.0035400645343432883	0.9086093857962643	0.459300081669335	0.049446494246064274	0.8546275057453405	0.3788658451019151	0.037633879834601695	0.8437056911222712	0.33593895403947177	0.019477351759394947	0.8224898898545547	0.3784394420130221	
